<svg width="261" height="20" viewBox="0 0 261 20" fill="none" xmlns="http://www.w3.org/2000/svg">
<path d="M0.988942 17C0.915609 17 0.878943 16.9633 0.878945 16.89L0.923355 1.776C0.923357 1.71733 0.952691 1.688 1.01136 1.688L5.12536 1.666C5.93203 1.65133 6.66535 1.842 7.32534 2.238C8 2.634 8.53532 3.16933 8.9313 3.844C9.32728 4.504 9.52526 5.23733 9.52524 6.044L9.52507 12.358C9.52505 13.2087 9.31969 13.986 8.90901 14.69C8.49832 15.3793 7.9483 15.9293 7.25896 16.34C6.56962 16.7507 5.79228 16.9633 4.92694 16.978L0.988942 17ZM3.56302 14.294H4.92702C5.46968 14.294 5.92435 14.1033 6.29103 13.722C6.67237 13.3407 6.86305 12.886 6.86307 12.358L6.86324 6.022C6.86325 5.55267 6.68726 5.14933 6.33527 4.812C5.99795 4.46 5.59462 4.29133 5.12529 4.306L3.58529 4.328L3.56302 14.294ZM15.4488 17.22C14.6568 17.22 13.9308 17.022 13.2708 16.626C12.6255 16.2153 12.1048 15.68 11.7088 15.02C11.3129 14.3453 11.1149 13.6047 11.1149 12.798L11.1371 5.824C11.1371 5.01733 11.3278 4.284 11.7091 3.624C12.1052 2.964 12.6332 2.436 13.2932 2.04C13.9532 1.644 14.6719 1.446 15.4492 1.446C16.2412 1.446 16.9599 1.644 17.6052 2.04C18.2505 2.436 18.7638 2.964 19.1451 3.624C19.5411 4.284 19.7391 5.01733 19.7391 5.824L19.7609 12.798C19.7609 13.6047 19.5629 14.3453 19.1668 15.02C18.7855 15.68 18.2648 16.2153 17.6048 16.626C16.9595 17.022 16.2408 17.22 15.4488 17.22ZM15.4489 14.558C15.8889 14.558 16.2702 14.382 16.5929 14.03C16.9302 13.6633 17.0989 13.2527 17.0989 12.798L17.0771 5.824C17.0771 5.34 16.9231 4.92933 16.6151 4.592C16.3071 4.25467 15.9185 4.086 15.4491 4.086C14.9945 4.086 14.6058 4.25467 14.2831 4.592C13.9604 4.91467 13.7991 5.32533 13.7991 5.824L13.7989 12.798C13.7989 13.282 13.9602 13.7 14.2829 14.052C14.6055 14.3893 14.9942 14.558 15.4489 14.558ZM26.1415 17.22C25.3348 17.22 24.6015 17.022 23.9415 16.626C23.2962 16.2153 22.7828 15.6727 22.4015 14.998C22.0202 14.3233 21.8296 13.568 21.8296 12.732L21.8518 5.868C21.8518 5.06133 22.0351 4.328 22.4018 3.668C22.7832 2.99333 23.2965 2.458 23.9419 2.062C24.6019 1.65133 25.3352 1.446 26.1419 1.446C26.9486 1.446 27.6746 1.644 28.3199 2.04C28.9652 2.436 29.4785 2.97133 29.8598 3.646C30.2411 4.306 30.4318 5.04667 30.4318 5.868L30.4317 6.88C30.4317 6.93867 30.4024 6.968 30.3437 6.968H27.8797C27.8211 6.968 27.7917 6.93867 27.7917 6.88L27.7918 5.868C27.7918 5.384 27.6305 4.966 27.3078 4.614C26.9998 4.262 26.6112 4.086 26.1418 4.086C25.6138 4.086 25.2105 4.26933 24.9318 4.636C24.6531 4.988 24.5138 5.39867 24.5138 5.868L24.5136 12.732C24.5136 13.2747 24.6676 13.7147 24.9756 14.052C25.2982 14.3893 25.6869 14.558 26.1415 14.558C26.6109 14.558 26.9995 14.3747 27.3076 14.008C27.6302 13.6267 27.7916 13.2013 27.7916 12.732L27.7916 11.72C27.7916 11.6613 27.821 11.632 27.8796 11.632H30.3656C30.4243 11.632 30.4536 11.6613 30.4536 11.72L30.4536 12.732C30.4536 13.568 30.2555 14.3233 29.8595 14.998C29.4782 15.6727 28.9648 16.2153 28.3195 16.626C27.6741 17.022 26.9481 17.22 26.1415 17.22ZM36.8991 17.22C36.1218 17.22 35.4031 17.022 34.7431 16.626C34.0831 16.2153 33.5552 15.6727 33.1592 14.998C32.7779 14.3233 32.5872 13.5827 32.5872 12.776L32.6315 1.776C32.6315 1.71733 32.6609 1.688 32.7195 1.688H35.1835C35.2422 1.688 35.2715 1.71733 35.2715 1.776L35.2712 12.776C35.2712 13.2747 35.4252 13.7 35.7332 14.052C36.0559 14.3893 36.4445 14.558 36.8992 14.558C37.3685 14.558 37.7572 14.3893 38.0652 14.052C38.3879 13.7 38.5492 13.2747 38.5492 12.776L38.5495 1.776C38.5495 1.71733 38.5789 1.688 38.6375 1.688H41.1015C41.1602 1.688 41.1895 1.71733 41.1895 1.776L41.2332 12.776C41.2332 13.5973 41.0352 14.3453 40.6392 15.02C40.2578 15.6947 39.7371 16.23 39.0771 16.626C38.4318 17.022 37.7058 17.22 36.8991 17.22ZM43.7183 17C43.6596 17 43.6303 16.9633 43.6303 16.89L43.6747 1.776C43.6747 1.71733 43.704 1.688 43.7627 1.688H46.4467C46.5053 1.688 46.5567 1.71733 46.6007 1.776L48.6026 4.68L50.6047 1.776C50.6487 1.71733 50.7 1.688 50.7587 1.688H53.4647C53.5233 1.688 53.5527 1.71733 53.5527 1.776L53.5963 16.89C53.5963 16.9633 53.5669 17 53.5083 17H51.0223C50.9636 17 50.9343 16.9633 50.9343 16.89L50.9126 5.67L48.6025 9.014L46.3146 5.67L46.2923 16.89C46.2923 16.9633 46.2629 17 46.2043 17H43.7183ZM56.1947 17C56.136 17 56.1067 16.9633 56.1067 16.89L56.1291 1.776C56.1291 1.71733 56.1584 1.688 56.2171 1.688H63.2791C63.3378 1.688 63.3671 1.72467 63.3671 1.798L63.367 4.262C63.367 4.32067 63.3377 4.35 63.279 4.35H58.769L58.7689 7.782H63.2789C63.3376 7.782 63.3669 7.81133 63.3669 7.87L63.3889 10.356C63.3889 10.4147 63.3595 10.444 63.3009 10.444H58.7689L58.7687 14.294H63.3007C63.3594 14.294 63.3887 14.3307 63.3887 14.404L63.3887 16.912C63.3887 16.9707 63.3593 17 63.3007 17H56.1947ZM66.203 17C66.0856 17 66.027 16.9487 66.027 16.846L66.0054 1.864C66.0054 1.74667 66.064 1.688 66.1814 1.688H68.1614L71.8791 10.356L71.7694 1.864C71.7694 1.74667 71.8354 1.688 71.9674 1.688H74.1454C74.2334 1.688 74.2774 1.74667 74.2774 1.864L74.299 16.868C74.299 16.956 74.2623 17 74.189 17H72.253L68.4472 8.904L68.601 16.824C68.601 16.9413 68.535 17 68.403 17H66.203ZM79.07 17C79.0114 17 78.982 16.9633 78.982 16.89L78.9824 4.35H76.1224C76.049 4.35 76.0124 4.31333 76.0124 4.24L76.0344 1.776C76.0344 1.71733 76.0638 1.688 76.1224 1.688H84.4824C84.5558 1.688 84.5924 1.71733 84.5924 1.776L84.5924 4.24C84.5924 4.31333 84.563 4.35 84.5044 4.35H81.6224L81.644 16.89C81.644 16.9633 81.6147 17 81.556 17H79.07ZM84.7957 16.89L87.5241 1.776C87.5388 1.71733 87.5755 1.688 87.6341 1.688H90.8241C90.8828 1.688 90.9194 1.71733 90.9341 1.776L93.5517 16.89C93.5664 16.9633 93.537 17 93.4637 17H91.0217C90.963 17 90.9264 16.9633 90.9117 16.89L90.6697 15.284H87.6777L87.4357 16.89C87.421 16.9633 87.3844 17 87.3257 17H84.8837C84.825 17 84.7957 16.9633 84.7957 16.89ZM88.1178 12.93H90.2298L89.328 6.748L89.196 5.934L89.108 6.748L88.1178 12.93ZM96.7396 17C96.681 17 96.6516 16.9633 96.6516 16.89L96.652 4.35H93.792C93.7187 4.35 93.682 4.31333 93.682 4.24L93.7041 1.776C93.7041 1.71733 93.7334 1.688 93.7921 1.688H102.152C102.225 1.688 102.262 1.71733 102.262 1.776L102.262 4.24C102.262 4.31333 102.233 4.35 102.174 4.35H99.292L99.3136 16.89C99.3136 16.9633 99.2843 17 99.2256 17H96.7396ZM104.118 17C104.045 17 104.008 16.9633 104.008 16.89L104.031 1.776C104.031 1.71733 104.06 1.688 104.119 1.688H106.583C106.641 1.688 106.671 1.71733 106.671 1.776L106.692 16.89C106.692 16.9633 106.663 17 106.604 17H104.118ZM113.357 17.22C112.565 17.22 111.839 17.022 111.179 16.626C110.534 16.2153 110.013 15.68 109.617 15.02C109.221 14.3453 109.023 13.6047 109.023 12.798L109.046 5.824C109.046 5.01733 109.236 4.284 109.618 3.624C110.014 2.964 110.542 2.436 111.202 2.04C111.862 1.644 112.58 1.446 113.358 1.446C114.15 1.446 114.868 1.644 115.514 2.04C116.159 2.436 116.672 2.964 117.054 3.624C117.45 4.284 117.648 5.01733 117.648 5.824L117.669 12.798C117.669 13.6047 117.471 14.3453 117.075 15.02C116.694 15.68 116.173 16.2153 115.513 16.626C114.868 17.022 114.149 17.22 113.357 17.22ZM113.357 14.558C113.797 14.558 114.179 14.382 114.501 14.03C114.839 13.6633 115.007 13.2527 115.007 12.798L114.986 5.824C114.986 5.34 114.832 4.92933 114.524 4.592C114.216 4.25467 113.827 4.086 113.358 4.086C112.903 4.086 112.514 4.25467 112.192 4.592C111.869 4.91467 111.708 5.32533 111.708 5.824L111.707 12.798C111.707 13.282 111.869 13.7 112.191 14.052C112.514 14.3893 112.903 14.558 113.357 14.558ZM120.2 17C120.083 17 120.024 16.9487 120.024 16.846L120.002 1.864C120.002 1.74667 120.061 1.688 120.178 1.688H122.158L125.876 10.356L125.766 1.864C125.766 1.74667 125.832 1.688 125.964 1.688H128.142C128.23 1.688 128.274 1.74667 128.274 1.864L128.296 16.868C128.296 16.956 128.259 17 128.186 17H126.25L122.444 8.904L122.598 16.824C122.598 16.9413 122.532 17 122.4 17H120.2Z" fill="black"/>
<path d="M140.769 17C140.696 17 140.666 16.9633 140.681 16.89L143.409 1.776C143.424 1.71733 143.461 1.688 143.519 1.688H145.807C145.881 1.688 145.91 1.71733 145.895 1.776L143.123 16.89C143.108 16.9633 143.072 17 143.013 17H140.769Z" fill="black"/>
<path d="M160.903 17C160.844 17 160.808 16.9633 160.793 16.89L158.197 1.776C158.183 1.71733 158.205 1.688 158.263 1.688H160.727C160.786 1.688 160.823 1.71733 160.837 1.776L162.245 11.72L163.697 1.776C163.712 1.71733 163.756 1.688 163.829 1.688H165.809C165.868 1.688 165.905 1.71733 165.919 1.776L167.349 11.72L168.779 1.776C168.794 1.71733 168.831 1.688 168.889 1.688H171.331C171.405 1.688 171.434 1.71733 171.419 1.776L168.801 16.89C168.786 16.9193 168.764 16.9487 168.735 16.978C168.706 16.9927 168.691 17 168.691 17H166.029C165.985 17 165.948 16.9633 165.919 16.89L164.797 8.992L163.675 16.89C163.66 16.9633 163.624 17 163.565 17H160.903ZM173.463 17C173.404 17 173.375 16.9633 173.375 16.89L173.397 1.776C173.397 1.71733 173.434 1.688 173.507 1.688H175.949C176.023 1.688 176.059 1.71733 176.059 1.776L176.037 7.76H179.337L179.337 1.776C179.337 1.71733 179.367 1.688 179.425 1.688H181.867C181.941 1.688 181.977 1.71733 181.977 1.776L182.021 16.89C182.021 16.9633 181.984 17 181.911 17H179.447C179.374 17 179.337 16.9633 179.337 16.89L179.337 10.422H176.037L176.037 16.89C176.037 16.9633 176.008 17 175.949 17H173.463ZM188.546 17.22C187.754 17.22 187.028 17.022 186.368 16.626C185.723 16.2153 185.202 15.68 184.806 15.02C184.41 14.3453 184.212 13.6047 184.212 12.798L184.235 5.824C184.235 5.01733 184.425 4.284 184.807 3.624C185.203 2.964 185.731 2.436 186.391 2.04C187.051 1.644 187.769 1.446 188.547 1.446C189.339 1.446 190.057 1.644 190.703 2.04C191.348 2.436 191.861 2.964 192.243 3.624C192.639 4.284 192.837 5.01733 192.837 5.824L192.858 12.798C192.858 13.6047 192.66 14.3453 192.264 15.02C191.883 15.68 191.362 16.2153 190.702 16.626C190.057 17.022 189.338 17.22 188.546 17.22ZM188.546 14.558C188.986 14.558 189.368 14.382 189.69 14.03C190.028 13.6633 190.196 13.2527 190.196 12.798L190.175 5.824C190.175 5.34 190.021 4.92933 189.713 4.592C189.405 4.25467 189.016 4.086 188.547 4.086C188.092 4.086 187.703 4.25467 187.381 4.592C187.058 4.91467 186.897 5.32533 186.897 5.824L186.896 12.798C186.896 13.282 187.058 13.7 187.38 14.052C187.703 14.3893 188.092 14.558 188.546 14.558ZM195.345 6.858C195.287 6.858 195.257 6.82133 195.257 6.748L195.609 1.776C195.624 1.71733 195.661 1.688 195.719 1.688H197.897C197.971 1.688 198 1.71733 197.985 1.776L197.567 6.792C197.567 6.836 197.545 6.858 197.501 6.858H195.345ZM204.253 17.22C203.461 17.22 202.735 17.022 202.075 16.626C201.43 16.2153 200.909 15.68 200.513 15.02C200.132 14.3453 199.941 13.6047 199.941 12.798L199.941 11.786C199.941 11.7127 199.978 11.676 200.051 11.676H202.515C202.574 11.676 202.603 11.7127 202.603 11.786L202.603 12.798C202.603 13.282 202.765 13.7 203.087 14.052C203.41 14.3893 203.798 14.558 204.253 14.558C204.708 14.558 205.096 14.382 205.419 14.03C205.742 13.678 205.903 13.2673 205.903 12.798C205.903 12.2553 205.551 11.786 204.847 11.39C204.613 11.258 204.246 11.0527 203.747 10.774C203.249 10.4953 202.779 10.2313 202.339 9.982C201.533 9.51267 200.931 8.926 200.535 8.222C200.154 7.50333 199.963 6.69667 199.963 5.802C199.963 4.98067 200.161 4.24733 200.557 3.602C200.953 2.942 201.474 2.42133 202.119 2.04C202.779 1.65867 203.491 1.468 204.254 1.468C205.031 1.468 205.742 1.666 206.387 2.062C207.047 2.44333 207.568 2.964 207.949 3.624C208.345 4.26933 208.543 4.99533 208.543 5.802L208.543 7.606C208.543 7.66467 208.514 7.694 208.455 7.694H205.991C205.933 7.694 205.903 7.66467 205.903 7.606L205.881 5.802C205.881 5.28867 205.72 4.87067 205.397 4.548C205.075 4.22533 204.693 4.064 204.253 4.064C203.799 4.064 203.41 4.24 203.087 4.592C202.765 4.92933 202.603 5.33267 202.603 5.802C202.603 6.286 202.706 6.68933 202.911 7.012C203.117 7.33467 203.491 7.64267 204.033 7.936C204.107 7.98 204.246 8.06067 204.451 8.178C204.671 8.28067 204.906 8.40533 205.155 8.552C205.405 8.684 205.625 8.80133 205.815 8.904C206.021 9.00667 206.145 9.07267 206.189 9.102C206.923 9.51267 207.502 10.0187 207.927 10.62C208.353 11.2067 208.565 11.9327 208.565 12.798C208.565 13.634 208.367 14.3893 207.971 15.064C207.59 15.724 207.069 16.252 206.409 16.648C205.764 17.0293 205.045 17.22 204.253 17.22ZM218.729 17.22C217.951 17.22 217.233 17.022 216.573 16.626C215.913 16.2153 215.385 15.6727 214.989 14.998C214.607 14.3233 214.417 13.5827 214.417 12.776L214.461 1.776C214.461 1.71733 214.49 1.688 214.549 1.688H217.013C217.072 1.688 217.101 1.71733 217.101 1.776L217.101 12.776C217.101 13.2747 217.255 13.7 217.563 14.052C217.885 14.3893 218.274 14.558 218.729 14.558C219.198 14.558 219.587 14.3893 219.895 14.052C220.217 13.7 220.379 13.2747 220.379 12.776L220.379 1.776C220.379 1.71733 220.408 1.688 220.467 1.688H222.931C222.99 1.688 223.019 1.71733 223.019 1.776L223.063 12.776C223.063 13.5973 222.865 14.3453 222.469 15.02C222.087 15.6947 221.567 16.23 220.907 16.626C220.261 17.022 219.535 17.22 218.729 17.22ZM229.2 17.22C228.408 17.22 227.682 17.022 227.022 16.626C226.377 16.2153 225.856 15.68 225.46 15.02C225.079 14.3453 224.888 13.6047 224.888 12.798L224.888 11.786C224.888 11.7127 224.925 11.676 224.998 11.676H227.462C227.521 11.676 227.55 11.7127 227.55 11.786L227.55 12.798C227.55 13.282 227.711 13.7 228.034 14.052C228.357 14.3893 228.745 14.558 229.2 14.558C229.655 14.558 230.043 14.382 230.366 14.03C230.689 13.678 230.85 13.2673 230.85 12.798C230.85 12.2553 230.498 11.786 229.794 11.39C229.559 11.258 229.193 11.0527 228.694 10.774C228.195 10.4953 227.726 10.2313 227.286 9.982C226.479 9.51267 225.878 8.926 225.482 8.222C225.101 7.50333 224.91 6.69667 224.91 5.802C224.91 4.98067 225.108 4.24733 225.504 3.602C225.9 2.942 226.421 2.42133 227.066 2.04C227.726 1.65867 228.438 1.468 229.2 1.468C229.978 1.468 230.689 1.666 231.334 2.062C231.994 2.44333 232.515 2.964 232.896 3.624C233.292 4.26933 233.49 4.99533 233.49 5.802L233.49 7.606C233.49 7.66467 233.461 7.694 233.402 7.694H230.938C230.879 7.694 230.85 7.66467 230.85 7.606L230.828 5.802C230.828 5.28867 230.667 4.87067 230.344 4.548C230.022 4.22533 229.64 4.064 229.2 4.064C228.746 4.064 228.357 4.24 228.034 4.592C227.712 4.92933 227.55 5.33267 227.55 5.802C227.55 6.286 227.653 6.68933 227.858 7.012C228.063 7.33467 228.437 7.64267 228.98 7.936C229.053 7.98 229.193 8.06067 229.398 8.178C229.618 8.28067 229.853 8.40533 230.102 8.552C230.351 8.684 230.571 8.80133 230.762 8.904C230.967 9.00667 231.092 9.07267 231.136 9.102C231.869 9.51267 232.449 10.0187 232.874 10.62C233.299 11.2067 233.512 11.9327 233.512 12.798C233.512 13.634 233.314 14.3893 232.918 15.064C232.537 15.724 232.016 16.252 231.356 16.648C230.711 17.0293 229.992 17.22 229.2 17.22ZM235.812 17C235.739 17 235.702 16.9633 235.702 16.89L235.724 1.776C235.724 1.71733 235.754 1.688 235.812 1.688H238.276C238.335 1.688 238.364 1.71733 238.364 1.776L238.386 16.89C238.386 16.9633 238.357 17 238.298 17H235.812ZM241.179 17C241.062 17 241.003 16.9487 241.003 16.846L240.981 1.864C240.981 1.74667 241.04 1.688 241.157 1.688H243.137L246.855 10.356L246.745 1.864C246.745 1.74667 246.811 1.688 246.943 1.688H249.121C249.209 1.688 249.253 1.74667 249.253 1.864L249.275 16.868C249.275 16.956 249.238 17 249.165 17H247.229L243.423 8.904L243.577 16.824C243.577 16.9413 243.511 17 243.379 17H241.179ZM255.872 17.22C255.08 17.22 254.361 17.022 253.716 16.626C253.071 16.23 252.55 15.702 252.154 15.042C251.773 14.3673 251.582 13.6193 251.582 12.798L251.582 5.824C251.582 5.032 251.773 4.306 252.154 3.646C252.551 2.97133 253.071 2.436 253.717 2.04C254.377 1.644 255.095 1.446 255.873 1.446C256.679 1.446 257.405 1.644 258.051 2.04C258.711 2.42133 259.231 2.942 259.612 3.602C259.994 4.262 260.184 5.00267 260.184 5.824L260.184 6.836C260.184 6.89467 260.148 6.924 260.074 6.924H257.61C257.552 6.924 257.522 6.89467 257.522 6.836L257.522 6C257.522 5.44267 257.361 4.98067 257.038 4.614C256.73 4.24733 256.342 4.064 255.872 4.064C255.447 4.064 255.066 4.24 254.728 4.592C254.406 4.944 254.244 5.35467 254.244 5.824L254.244 12.798C254.244 13.282 254.406 13.7 254.728 14.052C255.051 14.3893 255.432 14.558 255.872 14.558C256.342 14.558 256.73 14.3893 257.038 14.052C257.361 13.7147 257.522 13.2967 257.522 12.798L257.522 11.72H255.982C255.909 11.72 255.872 11.6833 255.872 11.61L255.872 9.146C255.872 9.07267 255.909 9.036 255.982 9.036H260.096C260.155 9.036 260.184 9.07267 260.184 9.146L260.184 12.798C260.184 13.6193 259.986 14.3673 259.59 15.042C259.209 15.702 258.695 16.23 258.05 16.626C257.405 17.022 256.679 17.22 255.872 17.22Z" fill="black"/>
</svg>
